<svg xmlns="http://www.w3.org/2000/svg" xmlns:xlink="http://www.w3.org/1999/xlink" width="1024" zoomAndPan="magnify" viewBox="0 0 768 767.999994" height="1024" preserveAspectRatio="xMidYMid meet" version="1.0"><path fill="#000000" d="M 75.292969 331.292969 C 75.292969 322.976562 68.550781 316.234375 60.234375 316.234375 L 15.058594 316.234375 C 6.742188 316.234375 0 322.976562 0 331.292969 C 0 339.609375 6.742188 346.351562 15.058594 346.351562 L 60.234375 346.351562 C 68.550781 346.351562 75.292969 339.609375 75.292969 331.292969 Z M 75.292969 331.292969 " fill-opacity="1" fill-rule="nonzero"/><path fill="#000000" d="M 53.996094 230.292969 C 48.117188 224.414062 38.582031 224.414062 32.699219 230.292969 C 26.820312 236.171875 26.820312 245.707031 32.699219 251.589844 L 64.644531 283.535156 C 70.53125 289.417969 80.058594 289.414062 85.941406 283.535156 C 91.824219 277.65625 91.824219 268.121094 85.941406 262.238281 Z M 53.996094 230.292969 " fill-opacity="1" fill-rule="nonzero"/><path fill="#000000" d="M 64.644531 379.054688 L 32.703125 411 C 26.820312 416.878906 26.820312 426.414062 32.703125 432.296875 C 38.585938 438.179688 48.117188 438.175781 54 432.296875 L 85.945312 400.351562 C 91.824219 394.472656 91.824219 384.9375 85.945312 379.054688 C 80.058594 373.175781 70.527344 373.175781 64.644531 379.054688 Z M 64.644531 379.054688 " fill-opacity="1" fill-rule="nonzero"/><path fill="#000000" d="M 752.941406 316.234375 L 707.765625 316.234375 C 699.449219 316.234375 692.707031 322.976562 692.707031 331.292969 C 692.707031 339.609375 699.449219 346.351562 707.765625 346.351562 L 752.941406 346.351562 C 761.257812 346.351562 768 339.609375 768 331.292969 C 768 322.976562 761.257812 316.234375 752.941406 316.234375 Z M 752.941406 316.234375 " fill-opacity="1" fill-rule="nonzero"/><path fill="#000000" d="M 682.058594 283.535156 C 687.941406 289.414062 697.472656 289.414062 703.355469 283.535156 L 735.300781 251.589844 C 741.179688 245.707031 741.179688 236.171875 735.300781 230.292969 C 729.417969 224.414062 719.886719 224.414062 714.003906 230.292969 L 682.058594 262.234375 C 676.175781 268.117188 676.175781 277.652344 682.058594 283.535156 Z M 682.058594 283.535156 " fill-opacity="1" fill-rule="nonzero"/><path fill="#000000" d="M 703.355469 379.054688 C 697.472656 373.175781 687.941406 373.175781 682.054688 379.054688 C 676.175781 384.933594 676.175781 394.46875 682.054688 400.351562 L 714 432.296875 C 719.886719 438.179688 729.414062 438.175781 735.296875 432.296875 C 741.179688 426.417969 741.179688 416.882812 735.296875 411 Z M 703.355469 379.054688 " fill-opacity="1" fill-rule="nonzero"/><path fill="#000000" d="M 677.648438 150.589844 C 677.648438 67.550781 610.09375 0 527.058594 0 C 454.050781 0 393.023438 52.226562 379.34375 121.277344 C 327.871094 116.535156 276.464844 132.4375 236.261719 166 C 156.71875 232.402344 142.847656 347.621094 202.363281 430.410156 C 243.394531 487.472656 266.828125 552.835938 270.535156 620.1875 C 253.277344 626.546875 240.941406 643.152344 240.941406 662.589844 C 240.941406 687.5 261.207031 707.765625 286.117188 707.765625 L 287.632812 707.765625 C 294.628906 742.089844 325.050781 768 361.410156 768 C 397.773438 768 428.195312 742.089844 435.191406 707.765625 L 436.707031 707.765625 C 461.617188 707.765625 481.882812 687.5 481.882812 662.589844 C 481.882812 643.320312 469.753906 626.84375 452.738281 620.359375 C 457.628906 551.160156 481.019531 485.578125 520.773438 429.964844 C 547.933594 391.949219 560.550781 344.71875 556.351562 298.304688 C 625.414062 284.636719 677.648438 223.601562 677.648438 150.589844 Z M 361.410156 737.882812 C 341.78125 737.882812 325.03125 725.292969 318.816406 707.765625 L 404.007812 707.765625 C 397.792969 725.292969 381.042969 737.882812 361.410156 737.882812 Z M 436.707031 677.648438 C 425.523438 677.648438 307.898438 677.648438 286.117188 677.648438 C 277.8125 677.648438 271.058594 670.890625 271.058594 662.589844 C 271.058594 654.285156 277.8125 647.53125 286.117188 647.53125 C 453.992188 647.53125 435.589844 647.542969 436.992188 647.542969 C 445.160156 647.699219 451.765625 654.382812 451.765625 662.589844 C 451.765625 670.890625 445.007812 677.648438 436.707031 677.648438 Z M 361.410156 436.707031 C 344.804688 436.707031 331.292969 423.195312 331.292969 406.589844 C 331.292969 389.980469 344.804688 376.46875 361.410156 376.46875 C 378.019531 376.46875 391.53125 389.980469 391.53125 406.589844 C 391.53125 423.195312 378.019531 436.707031 361.410156 436.707031 Z M 496.273438 412.453125 C 453.429688 472.378906 428.160156 542.964844 422.746094 617.410156 L 376.46875 617.410156 L 376.46875 464.917969 C 402.421875 458.214844 421.648438 434.605469 421.648438 406.589844 C 421.648438 373.375 394.625 346.351562 361.410156 346.351562 C 328.199219 346.351562 301.175781 373.375 301.175781 406.589844 C 301.175781 434.605469 320.402344 458.214844 346.351562 464.917969 L 346.351562 617.410156 L 300.546875 617.410156 C 296.332031 544.707031 270.996094 474.265625 226.816406 412.828125 C 176.566406 342.929688 188.074219 245.457031 255.5625 189.121094 C 289.554688 160.742188 332.996094 147.273438 376.480469 151.253906 C 376.839844 233.753906 443.875 300.796875 526.371094 301.167969 C 529.898438 340.40625 519.226562 380.324219 496.273438 412.453125 Z M 527.058594 271.058594 C 460.632812 271.058594 406.589844 217.015625 406.589844 150.589844 C 406.589844 84.160156 460.632812 30.117188 527.058594 30.117188 C 593.488281 30.117188 647.53125 84.160156 647.53125 150.589844 C 647.53125 217.015625 593.488281 271.058594 527.058594 271.058594 Z M 527.058594 271.058594 " fill-opacity="1" fill-rule="nonzero"/><path fill="#000000" d="M 572.882812 100.410156 L 504.46875 168.820312 L 481.238281 145.585938 C 475.355469 139.707031 465.820312 139.707031 459.9375 145.585938 C 454.058594 151.464844 454.058594 161 459.9375 166.882812 L 493.820312 200.765625 C 499.707031 206.648438 509.234375 206.644531 515.117188 200.765625 L 594.175781 121.707031 C 600.058594 115.828125 600.058594 106.292969 594.175781 100.410156 C 588.296875 94.53125 578.761719 94.53125 572.882812 100.410156 Z M 572.882812 100.410156 " fill-opacity="1" fill-rule="nonzero"/></svg>