<svg xmlns="http://www.w3.org/2000/svg" xmlns:xlink="http://www.w3.org/1999/xlink" width="1024" zoomAndPan="magnify" viewBox="0 0 768 767.999994" height="1024" preserveAspectRatio="xMidYMid meet" version="1.0"><path fill="#000000" d="M 384 768 C 595.800781 768 768 595.800781 768 384 C 768 172.199219 595.800781 0 384 0 C 172.199219 0 0 172.199219 0 384 C 0 595.800781 172.199219 768 384 768 Z M 384 24 C 582.601562 24 744 185.398438 744 384 C 744 582.601562 582.601562 744 384 744 C 185.398438 744 24 582.601562 24 384 C 24 185.398438 185.398438 24 384 24 Z M 384 24 " fill-opacity="1" fill-rule="nonzero"/><path fill="#000000" d="M 384 702 C 559.199219 702 702 559.199219 702 384 C 702 208.800781 559.199219 66 384 66 C 208.800781 66 66 208.800781 66 384 C 66 559.199219 208.800781 702 384 702 Z M 384 90 C 546.601562 90 678 221.398438 678 384 C 678 546.601562 546.601562 678 384 678 C 221.398438 678 90 546.601562 90 384 C 90 221.398438 221.398438 90 384 90 Z M 384 90 " fill-opacity="1" fill-rule="nonzero"/><path fill="#000000" d="M 218.398438 561.601562 C 221.398438 561.601562 224.398438 560.398438 226.800781 558 C 231.601562 553.199219 231.601562 546 226.800781 541.199219 C 140.398438 454.800781 140.398438 313.800781 226.800781 227.398438 C 231.601562 222.601562 231.601562 215.398438 226.800781 210.601562 C 222 205.800781 214.800781 205.800781 210 210.601562 C 114 306.601562 114 462.601562 210 558.601562 C 212.398438 560.398438 215.398438 561.601562 218.398438 561.601562 Z M 218.398438 561.601562 " fill-opacity="1" fill-rule="nonzero"/><path fill="#000000" d="M 541.199219 558 C 543.601562 560.398438 546.601562 561.601562 549.601562 561.601562 C 552.601562 561.601562 555.601562 560.398438 558 558 C 654 462 654 306 558 210 C 553.199219 205.199219 546 205.199219 541.199219 210 C 536.398438 214.800781 536.398438 222 541.199219 226.800781 C 627.601562 313.199219 627.601562 454.199219 541.199219 540.601562 C 536.398438 545.398438 536.398438 553.199219 541.199219 558 Z M 541.199219 558 " fill-opacity="1" fill-rule="nonzero"/><path fill="#000000" d="M 383.398438 582 C 411 582 432 561.601562 432 534 C 432 506.398438 411.601562 486 384 486 C 357 486 336 507 336 534 C 336 561 357 582 383.398438 582 Z M 384 510 C 398.398438 510 408 520.199219 408 534 C 408 547.800781 398.398438 558 384 558 L 383.398438 558 C 369.601562 558 360 547.800781 360 534 C 360 520.199219 370.199219 510 384 510 Z M 384 510 " fill-opacity="1" fill-rule="nonzero"/><path fill="#000000" d="M 367.199219 462 L 401.398438 462 C 414.601562 462 424.800781 451.800781 425.398438 438.601562 L 432.601562 210.601562 C 432.601562 204 430.199219 198 426 193.199219 C 420.601562 188.398438 414.601562 186 408 186 L 360 186 C 353.398438 186 347.398438 188.398438 342.601562 193.199219 C 337.800781 198 336 204 336 210.601562 L 343.199219 438.601562 C 343.199219 451.800781 354 462 367.199219 462 Z M 408 210 L 400.800781 438 L 366.601562 438 L 360 210 Z M 408 210 " fill-opacity="1" fill-rule="nonzero"/></svg>