<svg xmlns="http://www.w3.org/2000/svg" xmlns:xlink="http://www.w3.org/1999/xlink" width="1024" zoomAndPan="magnify" viewBox="0 0 768 767.999994" height="1024" preserveAspectRatio="xMidYMid meet" version="1.0"><defs><clipPath id="1efda68b3a"><path d="M 10 2 L 758.273438 2 L 758.273438 766 L 10 766 Z M 10 2 " clip-rule="nonzero"/></clipPath></defs><g clip-path="url(#1efda68b3a)"><path fill="#000000" d="M 728.726562 412.363281 L 715.628906 412.363281 L 715.628906 316.542969 C 715.628906 315.574219 715.582031 314.609375 715.488281 313.644531 C 715.390625 312.683594 715.25 311.726562 715.0625 310.777344 C 714.875 309.828125 714.636719 308.890625 714.355469 307.964844 C 714.078125 307.039062 713.75 306.128906 713.378906 305.234375 C 713.011719 304.34375 712.597656 303.46875 712.140625 302.613281 C 711.683594 301.761719 711.1875 300.933594 710.648438 300.128906 C 710.113281 299.324219 709.535156 298.546875 708.921875 297.800781 C 708.308594 297.050781 707.660156 296.335938 706.976562 295.652344 C 706.292969 294.96875 705.574219 294.316406 704.828125 293.703125 C 704.078125 293.089844 703.304688 292.515625 702.5 291.976562 C 701.695312 291.441406 700.863281 290.941406 700.011719 290.488281 C 699.15625 290.03125 698.285156 289.617188 697.390625 289.246094 C 696.496094 288.875 695.585938 288.550781 694.660156 288.269531 C 693.734375 287.988281 692.796875 287.753906 691.847656 287.566406 C 690.898438 287.378906 689.941406 287.234375 688.980469 287.140625 C 688.015625 287.046875 687.050781 287 686.082031 287 L 659.789062 287 L 659.789062 172.761719 C 659.808594 171.148438 659.519531 169.589844 658.925781 168.085938 C 658.328125 166.585938 657.464844 165.253906 656.339844 164.097656 L 501.617188 6.53125 C 500.445312 5.199219 499.050781 4.164062 497.4375 3.429688 C 495.828125 2.691406 494.132812 2.3125 492.359375 2.292969 L 112.988281 2.292969 C 112.179688 2.292969 111.378906 2.375 110.585938 2.53125 C 109.792969 2.6875 109.023438 2.921875 108.277344 3.230469 C 107.53125 3.542969 106.820312 3.921875 106.148438 4.371094 C 105.476562 4.820312 104.855469 5.328125 104.285156 5.902344 C 103.710938 6.472656 103.203125 7.09375 102.753906 7.765625 C 102.304688 8.4375 101.925781 9.148438 101.613281 9.894531 C 101.304688 10.640625 101.070312 11.410156 100.914062 12.203125 C 100.757812 12.996094 100.679688 13.796875 100.679688 14.605469 L 100.679688 287.195312 L 73.988281 287.195312 C 73.019531 287.195312 72.054688 287.242188 71.09375 287.335938 C 70.128906 287.433594 69.171875 287.574219 68.222656 287.761719 C 67.273438 287.953125 66.335938 288.1875 65.410156 288.46875 C 64.484375 288.75 63.574219 289.074219 62.679688 289.445312 C 61.789062 289.8125 60.914062 290.226562 60.058594 290.683594 C 59.207031 291.140625 58.378906 291.636719 57.574219 292.175781 C 56.769531 292.710938 55.992188 293.289062 55.246094 293.902344 C 54.496094 294.515625 53.78125 295.164062 53.097656 295.847656 C 52.410156 296.53125 51.761719 297.25 51.148438 297.996094 C 50.535156 298.746094 49.957031 299.519531 49.421875 300.324219 C 48.882812 301.128906 48.386719 301.957031 47.929688 302.8125 C 47.472656 303.664062 47.0625 304.539062 46.691406 305.433594 C 46.320312 306.328125 45.996094 307.238281 45.714844 308.164062 C 45.433594 309.089844 45.199219 310.027344 45.007812 310.976562 C 44.820312 311.925781 44.679688 312.878906 44.585938 313.84375 C 44.488281 314.804688 44.441406 315.769531 44.441406 316.738281 L 44.441406 452.246094 L 39.714844 452.246094 C 38.746094 452.246094 37.78125 452.292969 36.820312 452.386719 C 35.855469 452.484375 34.898438 452.625 33.949219 452.8125 C 33 453.003906 32.0625 453.238281 31.136719 453.519531 C 30.210938 453.800781 29.300781 454.125 28.40625 454.496094 C 27.515625 454.867188 26.640625 455.277344 25.785156 455.734375 C 24.933594 456.191406 24.105469 456.6875 23.300781 457.226562 C 22.496094 457.761719 21.71875 458.339844 20.972656 458.953125 C 20.222656 459.566406 19.507812 460.214844 18.824219 460.898438 C 18.136719 461.582031 17.488281 462.300781 16.875 463.046875 C 16.261719 463.796875 15.683594 464.570312 15.148438 465.375 C 14.609375 466.179688 14.113281 467.007812 13.65625 467.863281 C 13.199219 468.714844 12.789062 469.589844 12.417969 470.484375 C 12.046875 471.378906 11.722656 472.289062 11.441406 473.214844 C 11.160156 474.140625 10.925781 475.078125 10.734375 476.027344 C 10.546875 476.976562 10.40625 477.929688 10.3125 478.894531 C 10.214844 479.855469 10.167969 480.820312 10.167969 481.789062 C 10.167969 481.789062 10.167969 482.875 10.167969 483.464844 L 44.246094 736.753906 C 44.28125 737.695312 44.359375 738.636719 44.484375 739.574219 C 44.609375 740.511719 44.777344 741.441406 44.992188 742.363281 C 45.207031 743.28125 45.464844 744.191406 45.765625 745.085938 C 46.066406 745.984375 46.410156 746.863281 46.796875 747.726562 C 47.183594 748.589844 47.609375 749.429688 48.078125 750.253906 C 48.542969 751.074219 49.046875 751.875 49.589844 752.648438 C 50.136719 753.421875 50.714844 754.167969 51.328125 754.886719 C 51.945312 755.601562 52.589844 756.289062 53.273438 756.945312 C 53.953125 757.601562 54.664062 758.222656 55.40625 758.8125 C 56.144531 759.398438 56.914062 759.949219 57.707031 760.464844 C 58.5 760.976562 59.316406 761.453125 60.15625 761.886719 C 60.992188 762.324219 61.851562 762.71875 62.730469 763.070312 C 63.605469 763.425781 64.496094 763.734375 65.40625 764.003906 C 66.3125 764.269531 67.230469 764.496094 68.15625 764.675781 C 69.085938 764.855469 70.019531 764.988281 70.960938 765.078125 C 71.902344 765.167969 72.84375 765.214844 73.789062 765.210938 L 686.28125 765.210938 C 687.222656 765.214844 688.164062 765.167969 689.105469 765.078125 C 690.042969 764.992188 690.976562 764.855469 691.902344 764.675781 C 692.828125 764.5 693.746094 764.277344 694.648438 764.007812 C 695.554688 763.742188 696.445312 763.433594 697.320312 763.082031 C 698.195312 762.730469 699.054688 762.335938 699.890625 761.902344 C 700.730469 761.46875 701.542969 760.996094 702.335938 760.484375 C 703.128906 759.972656 703.894531 759.425781 704.636719 758.839844 C 705.375 758.253906 706.085938 757.636719 706.765625 756.980469 C 707.445312 756.328125 708.09375 755.644531 708.710938 754.929688 C 709.324219 754.214844 709.902344 753.46875 710.449219 752.699219 C 710.992188 751.929688 711.496094 751.132812 711.964844 750.3125 C 712.433594 749.496094 712.859375 748.65625 713.246094 747.792969 C 713.632812 746.933594 713.980469 746.058594 714.28125 745.164062 C 714.585938 744.269531 714.847656 743.363281 715.0625 742.445312 C 715.277344 741.527344 715.449219 740.601562 715.578125 739.667969 C 715.707031 738.730469 715.789062 737.792969 715.828125 736.851562 L 758.273438 443.480469 C 758.324219 442.890625 758.324219 442.300781 758.273438 441.707031 C 758.269531 440.746094 758.214844 439.785156 758.113281 438.828125 C 758.011719 437.867188 757.867188 436.917969 757.671875 435.972656 C 757.480469 435.027344 757.242188 434.097656 756.957031 433.175781 C 756.671875 432.257812 756.34375 431.351562 755.96875 430.464844 C 755.597656 429.574219 755.179688 428.707031 754.722656 427.859375 C 754.265625 427.011719 753.765625 426.1875 753.226562 425.390625 C 752.6875 424.589844 752.113281 423.820312 751.496094 423.078125 C 750.882812 422.335938 750.234375 421.625 749.550781 420.945312 C 748.867188 420.265625 748.152344 419.621094 747.40625 419.011719 C 746.660156 418.402344 745.882812 417.832031 745.082031 417.300781 C 744.28125 416.765625 743.453125 416.273438 742.601562 415.820312 C 741.75 415.367188 740.878906 414.960938 739.988281 414.59375 C 739.097656 414.226562 738.191406 413.902344 737.269531 413.625 C 736.347656 413.34375 735.414062 413.113281 734.46875 412.925781 C 733.523438 412.738281 732.570312 412.597656 731.613281 412.503906 C 730.652344 412.410156 729.691406 412.363281 728.726562 412.363281 Z M 68.867188 452.246094 L 68.867188 316.542969 C 68.871094 316.234375 68.910156 315.929688 68.972656 315.625 C 69.039062 315.324219 69.132812 315.03125 69.25 314.746094 C 69.371094 314.464844 69.519531 314.195312 69.691406 313.9375 C 69.867188 313.683594 70.0625 313.445312 70.277344 313.226562 C 70.496094 313.007812 70.734375 312.8125 70.988281 312.640625 C 71.246094 312.46875 71.515625 312.320312 71.800781 312.199219 C 72.082031 312.078125 72.375 311.984375 72.679688 311.921875 C 72.980469 311.855469 73.285156 311.820312 73.59375 311.816406 L 100.285156 311.816406 L 100.285156 452.246094 Z M 429.527344 418.171875 L 408.546875 452.246094 L 125.300781 452.246094 L 125.300781 26.914062 L 480.34375 26.914062 L 480.34375 172.761719 C 480.371094 173.542969 480.46875 174.3125 480.636719 175.074219 C 480.808594 175.832031 481.050781 176.570312 481.363281 177.285156 C 481.671875 178 482.046875 178.679688 482.488281 179.324219 C 482.929688 179.964844 483.425781 180.5625 483.980469 181.113281 C 484.535156 181.660156 485.132812 182.152344 485.78125 182.589844 C 486.429688 183.023438 487.109375 183.394531 487.828125 183.699219 C 488.546875 184.003906 489.285156 184.238281 490.046875 184.402344 C 490.808594 184.570312 491.582031 184.660156 492.359375 184.679688 L 634.96875 184.679688 L 634.96875 412.363281 L 440.457031 412.363281 C 439.402344 412.355469 438.367188 412.480469 437.34375 412.738281 C 436.324219 413 435.351562 413.382812 434.429688 413.890625 C 433.507812 414.402344 432.664062 415.015625 431.898438 415.742188 C 431.136719 416.46875 430.476562 417.277344 429.917969 418.171875 Z M 659.789062 412.363281 L 659.789062 311.816406 L 686.476562 311.816406 C 686.785156 311.820312 687.089844 311.855469 687.394531 311.921875 C 687.695312 311.984375 687.988281 312.078125 688.273438 312.199219 C 688.554688 312.320312 688.824219 312.46875 689.082031 312.640625 C 689.335938 312.8125 689.574219 313.007812 689.792969 313.226562 C 690.011719 313.445312 690.207031 313.683594 690.378906 313.9375 C 690.550781 314.195312 690.699219 314.464844 690.820312 314.746094 C 690.941406 315.03125 691.035156 315.324219 691.097656 315.625 C 691.164062 315.929688 691.199219 316.234375 691.203125 316.542969 L 691.203125 412.363281 Z M 659.789062 412.363281 " fill-opacity="1" fill-rule="nonzero"/></g><path fill="#000000" d="M 203.695312 133.371094 L 396.335938 133.371094 C 397.144531 133.371094 397.945312 133.292969 398.738281 133.132812 C 399.53125 132.976562 400.300781 132.742188 401.046875 132.433594 C 401.792969 132.125 402.503906 131.746094 403.175781 131.296875 C 403.847656 130.847656 404.46875 130.335938 405.039062 129.765625 C 405.613281 129.195312 406.121094 128.570312 406.570312 127.898438 C 407.019531 127.226562 407.398438 126.519531 407.710938 125.773438 C 408.019531 125.023438 408.25 124.253906 408.410156 123.460938 C 408.566406 122.667969 408.644531 121.867188 408.644531 121.0625 C 408.644531 120.253906 408.566406 119.453125 408.410156 118.660156 C 408.25 117.867188 408.019531 117.097656 407.710938 116.351562 C 407.398438 115.601562 407.019531 114.894531 406.570312 114.222656 C 406.121094 113.550781 405.613281 112.929688 405.039062 112.355469 C 404.46875 111.785156 403.847656 111.273438 403.175781 110.824219 C 402.503906 110.375 401.792969 109.996094 401.046875 109.6875 C 400.300781 109.378906 399.53125 109.144531 398.738281 108.988281 C 397.945312 108.828125 397.144531 108.75 396.335938 108.75 L 203.695312 108.75 C 202.886719 108.75 202.085938 108.828125 201.292969 108.988281 C 200.5 109.144531 199.730469 109.378906 198.984375 109.6875 C 198.238281 109.996094 197.527344 110.375 196.855469 110.824219 C 196.183594 111.273438 195.5625 111.785156 194.988281 112.355469 C 194.417969 112.929688 193.90625 113.550781 193.460938 114.222656 C 193.011719 114.894531 192.628906 115.601562 192.320312 116.351562 C 192.011719 117.097656 191.777344 117.867188 191.621094 118.660156 C 191.464844 119.453125 191.382812 120.253906 191.382812 121.0625 C 191.382812 121.867188 191.464844 122.667969 191.621094 123.460938 C 191.777344 124.253906 192.011719 125.023438 192.320312 125.773438 C 192.628906 126.519531 193.011719 127.226562 193.460938 127.898438 C 193.90625 128.570312 194.417969 129.195312 194.988281 129.765625 C 195.5625 130.335938 196.183594 130.847656 196.855469 131.296875 C 197.527344 131.746094 198.238281 132.125 198.984375 132.433594 C 199.730469 132.742188 200.5 132.976562 201.292969 133.132812 C 202.085938 133.292969 202.886719 133.371094 203.695312 133.371094 Z M 203.695312 133.371094 " fill-opacity="1" fill-rule="nonzero"/><path fill="#000000" d="M 271.847656 353.371094 L 203.695312 353.371094 C 202.886719 353.371094 202.085938 353.453125 201.292969 353.609375 C 200.5 353.765625 199.730469 354 198.984375 354.308594 C 198.238281 354.621094 197.527344 355 196.855469 355.449219 C 196.183594 355.898438 195.5625 356.40625 194.988281 356.976562 C 194.417969 357.550781 193.90625 358.171875 193.460938 358.84375 C 193.011719 359.515625 192.628906 360.226562 192.320312 360.972656 C 192.011719 361.71875 191.777344 362.488281 191.621094 363.28125 C 191.464844 364.074219 191.382812 364.875 191.382812 365.683594 C 191.382812 366.492188 191.464844 367.292969 191.621094 368.085938 C 191.777344 368.878906 192.011719 369.648438 192.320312 370.394531 C 192.628906 371.140625 193.011719 371.851562 193.460938 372.523438 C 193.90625 373.195312 194.417969 373.816406 194.988281 374.386719 C 195.5625 374.957031 196.183594 375.46875 196.855469 375.917969 C 197.527344 376.367188 198.238281 376.746094 198.984375 377.054688 C 199.730469 377.363281 200.5 377.597656 201.292969 377.757812 C 202.085938 377.914062 202.886719 377.992188 203.695312 377.992188 L 271.847656 377.992188 C 272.65625 377.992188 273.457031 377.914062 274.25 377.757812 C 275.042969 377.597656 275.8125 377.363281 276.558594 377.054688 C 277.304688 376.746094 278.015625 376.367188 278.6875 375.917969 C 279.359375 375.46875 279.980469 374.957031 280.554688 374.386719 C 281.125 373.816406 281.636719 373.195312 282.085938 372.523438 C 282.53125 371.851562 282.914062 371.140625 283.222656 370.394531 C 283.53125 369.648438 283.765625 368.878906 283.921875 368.085938 C 284.078125 367.292969 284.160156 366.492188 284.160156 365.683594 C 284.160156 364.875 284.078125 364.074219 283.921875 363.28125 C 283.765625 362.488281 283.53125 361.71875 283.222656 360.972656 C 282.914062 360.226562 282.53125 359.515625 282.085938 358.84375 C 281.636719 358.171875 281.125 357.550781 280.554688 356.976562 C 279.980469 356.40625 279.359375 355.898438 278.6875 355.449219 C 278.015625 355 277.304688 354.621094 276.558594 354.308594 C 275.8125 354 275.042969 353.765625 274.25 353.609375 C 273.457031 353.453125 272.65625 353.371094 271.847656 353.371094 Z M 271.847656 353.371094 " fill-opacity="1" fill-rule="nonzero"/><path fill="#000000" d="M 422.238281 353.371094 L 330.546875 353.371094 C 329.738281 353.371094 328.9375 353.453125 328.144531 353.609375 C 327.351562 353.765625 326.582031 354 325.835938 354.308594 C 325.089844 354.621094 324.378906 355 323.707031 355.449219 C 323.035156 355.898438 322.414062 356.40625 321.839844 356.976562 C 321.269531 357.550781 320.757812 358.171875 320.308594 358.84375 C 319.859375 359.515625 319.480469 360.226562 319.171875 360.972656 C 318.863281 361.71875 318.628906 362.488281 318.472656 363.28125 C 318.3125 364.074219 318.234375 364.875 318.234375 365.683594 C 318.234375 366.492188 318.3125 367.292969 318.472656 368.085938 C 318.628906 368.878906 318.863281 369.648438 319.171875 370.394531 C 319.480469 371.140625 319.859375 371.851562 320.308594 372.523438 C 320.757812 373.195312 321.269531 373.816406 321.839844 374.386719 C 322.414062 374.957031 323.035156 375.46875 323.707031 375.917969 C 324.378906 376.367188 325.089844 376.746094 325.835938 377.054688 C 326.582031 377.363281 327.351562 377.597656 328.144531 377.757812 C 328.9375 377.914062 329.738281 377.992188 330.546875 377.992188 L 422.238281 377.992188 C 423.046875 377.992188 423.847656 377.914062 424.640625 377.757812 C 425.433594 377.597656 426.203125 377.363281 426.949219 377.054688 C 427.695312 376.746094 428.40625 376.367188 429.078125 375.917969 C 429.75 375.46875 430.371094 374.957031 430.941406 374.386719 C 431.515625 373.816406 432.023438 373.195312 432.472656 372.523438 C 432.921875 371.851562 433.300781 371.140625 433.609375 370.394531 C 433.921875 369.648438 434.152344 368.878906 434.3125 368.085938 C 434.46875 367.292969 434.546875 366.492188 434.546875 365.683594 C 434.546875 364.875 434.46875 364.074219 434.3125 363.28125 C 434.152344 362.488281 433.921875 361.71875 433.609375 360.972656 C 433.300781 360.226562 432.921875 359.515625 432.472656 358.84375 C 432.023438 358.171875 431.515625 357.550781 430.941406 356.976562 C 430.371094 356.40625 429.75 355.898438 429.078125 355.449219 C 428.40625 355 427.695312 354.621094 426.949219 354.308594 C 426.203125 354 425.433594 353.765625 424.640625 353.609375 C 423.847656 353.453125 423.046875 353.371094 422.238281 353.371094 Z M 422.238281 353.371094 " fill-opacity="1" fill-rule="nonzero"/><path fill="#000000" d="M 203.695312 188.714844 L 421.546875 188.714844 C 422.355469 188.714844 423.15625 188.636719 423.949219 188.480469 C 424.742188 188.320312 425.511719 188.089844 426.257812 187.777344 C 427.007812 187.46875 427.714844 187.089844 428.386719 186.640625 C 429.058594 186.191406 429.679688 185.683594 430.253906 185.109375 C 430.824219 184.539062 431.335938 183.917969 431.785156 183.246094 C 432.234375 182.574219 432.613281 181.863281 432.921875 181.117188 C 433.230469 180.371094 433.464844 179.601562 433.621094 178.808594 C 433.78125 178.015625 433.859375 177.214844 433.859375 176.40625 C 433.859375 175.597656 433.78125 174.796875 433.621094 174.003906 C 433.464844 173.210938 433.230469 172.441406 432.921875 171.695312 C 432.613281 170.949219 432.234375 170.238281 431.785156 169.566406 C 431.335938 168.894531 430.824219 168.273438 430.253906 167.703125 C 429.679688 167.128906 429.058594 166.621094 428.386719 166.171875 C 427.714844 165.722656 427.007812 165.34375 426.257812 165.03125 C 425.511719 164.722656 424.742188 164.492188 423.949219 164.332031 C 423.15625 164.175781 422.355469 164.097656 421.546875 164.097656 L 203.695312 164.097656 C 202.886719 164.097656 202.085938 164.175781 201.292969 164.332031 C 200.5 164.492188 199.730469 164.722656 198.984375 165.03125 C 198.238281 165.34375 197.527344 165.722656 196.855469 166.171875 C 196.183594 166.621094 195.5625 167.128906 194.988281 167.703125 C 194.417969 168.273438 193.90625 168.894531 193.460938 169.566406 C 193.011719 170.238281 192.628906 170.949219 192.320312 171.695312 C 192.011719 172.441406 191.777344 173.210938 191.621094 174.003906 C 191.464844 174.796875 191.382812 175.597656 191.382812 176.40625 C 191.382812 177.214844 191.464844 178.015625 191.621094 178.808594 C 191.777344 179.601562 192.011719 180.371094 192.320312 181.117188 C 192.628906 181.863281 193.011719 182.574219 193.460938 183.246094 C 193.90625 183.917969 194.417969 184.539062 194.988281 185.109375 C 195.5625 185.683594 196.183594 186.191406 196.855469 186.640625 C 197.527344 187.089844 198.238281 187.46875 198.984375 187.777344 C 199.730469 188.089844 200.5 188.320312 201.292969 188.480469 C 202.085938 188.636719 202.886719 188.714844 203.695312 188.714844 Z M 203.695312 188.714844 " fill-opacity="1" fill-rule="nonzero"/><path fill="#000000" d="M 502.207031 291.726562 L 203.695312 291.726562 C 202.886719 291.726562 202.085938 291.804688 201.292969 291.960938 C 200.5 292.121094 199.730469 292.351562 198.984375 292.660156 C 198.238281 292.972656 197.527344 293.351562 196.855469 293.800781 C 196.183594 294.25 195.5625 294.757812 194.988281 295.332031 C 194.417969 295.902344 193.90625 296.523438 193.460938 297.195312 C 193.011719 297.867188 192.628906 298.578125 192.320312 299.324219 C 192.011719 300.070312 191.777344 300.839844 191.621094 301.632812 C 191.464844 302.425781 191.382812 303.226562 191.382812 304.035156 C 191.382812 304.84375 191.464844 305.644531 191.621094 306.4375 C 191.777344 307.230469 192.011719 308 192.320312 308.746094 C 192.628906 309.492188 193.011719 310.203125 193.460938 310.875 C 193.90625 311.546875 194.417969 312.167969 194.988281 312.738281 C 195.5625 313.3125 196.183594 313.820312 196.855469 314.269531 C 197.527344 314.71875 198.238281 315.097656 198.984375 315.40625 C 199.730469 315.71875 200.5 315.949219 201.292969 316.109375 C 202.085938 316.265625 202.886719 316.34375 203.695312 316.34375 L 502.207031 316.34375 C 503.015625 316.34375 503.816406 316.265625 504.609375 316.109375 C 505.402344 315.949219 506.171875 315.71875 506.917969 315.40625 C 507.667969 315.097656 508.375 314.71875 509.046875 314.269531 C 509.71875 313.820312 510.34375 313.3125 510.914062 312.738281 C 511.484375 312.167969 511.996094 311.546875 512.445312 310.875 C 512.894531 310.203125 513.273438 309.492188 513.582031 308.746094 C 513.890625 308 514.125 307.230469 514.28125 306.4375 C 514.441406 305.644531 514.519531 304.84375 514.519531 304.035156 C 514.519531 303.226562 514.441406 302.425781 514.28125 301.632812 C 514.125 300.839844 513.890625 300.070312 513.582031 299.324219 C 513.273438 298.578125 512.894531 297.867188 512.445312 297.195312 C 511.996094 296.523438 511.484375 295.902344 510.914062 295.332031 C 510.34375 294.757812 509.71875 294.25 509.046875 293.800781 C 508.375 293.351562 507.667969 292.972656 506.917969 292.660156 C 506.171875 292.351562 505.402344 292.121094 504.609375 291.960938 C 503.816406 291.804688 503.015625 291.726562 502.207031 291.726562 Z M 502.207031 291.726562 " fill-opacity="1" fill-rule="nonzero"/><path fill="#000000" d="M 567.703125 228.601562 L 203.300781 228.601562 C 202.492188 228.597656 201.691406 228.675781 200.898438 228.832031 C 200.101562 228.992188 199.332031 229.222656 198.585938 229.53125 C 197.835938 229.839844 197.125 230.21875 196.453125 230.667969 C 195.78125 231.117188 195.15625 231.628906 194.585938 232.199219 C 194.011719 232.769531 193.5 233.394531 193.050781 234.066406 C 192.601562 234.738281 192.222656 235.449219 191.910156 236.195312 C 191.601562 236.941406 191.367188 237.710938 191.210938 238.507812 C 191.050781 239.300781 190.972656 240.101562 190.972656 240.910156 C 190.972656 241.71875 191.050781 242.519531 191.210938 243.3125 C 191.367188 244.105469 191.601562 244.878906 191.910156 245.625 C 192.222656 246.371094 192.601562 247.082031 193.050781 247.753906 C 193.5 248.425781 194.011719 249.046875 194.585938 249.621094 C 195.15625 250.191406 195.78125 250.703125 196.453125 251.152344 C 197.125 251.601562 197.835938 251.980469 198.585938 252.289062 C 199.332031 252.597656 200.101562 252.828125 200.898438 252.984375 C 201.691406 253.144531 202.492188 253.222656 203.300781 253.21875 L 567.703125 253.21875 C 568.511719 253.21875 569.3125 253.140625 570.105469 252.984375 C 570.898438 252.824219 571.667969 252.59375 572.414062 252.28125 C 573.160156 251.972656 573.871094 251.59375 574.542969 251.144531 C 575.214844 250.695312 575.835938 250.1875 576.40625 249.613281 C 576.980469 249.042969 577.488281 248.421875 577.9375 247.75 C 578.386719 247.078125 578.765625 246.367188 579.074219 245.621094 C 579.386719 244.875 579.617188 244.105469 579.777344 243.3125 C 579.933594 242.519531 580.011719 241.71875 580.011719 240.910156 C 580.011719 240.101562 579.933594 239.300781 579.777344 238.507812 C 579.617188 237.714844 579.386719 236.945312 579.074219 236.199219 C 578.765625 235.453125 578.386719 234.742188 577.9375 234.070312 C 577.488281 233.398438 576.980469 232.777344 576.40625 232.207031 C 575.835938 231.632812 575.214844 231.125 574.542969 230.675781 C 573.871094 230.226562 573.160156 229.847656 572.414062 229.535156 C 571.667969 229.226562 570.898438 228.992188 570.105469 228.835938 C 569.3125 228.679688 568.511719 228.601562 567.703125 228.601562 Z M 567.703125 228.601562 " fill-opacity="1" fill-rule="nonzero"/></svg>